<?xml version="1.0" standalone="no"?>
<!DOCTYPE svg PUBLIC "-//W3C//DTD SVG 20010904//EN"
 "http://www.w3.org/TR/2001/REC-SVG-20010904/DTD/svg10.dtd">
<svg version="1.0" xmlns="http://www.w3.org/2000/svg"
 width="500.000000pt" height="500.000000pt" viewBox="0 0 500.000000 500.000000"
 preserveAspectRatio="xMidYMid meet">
<metadata>
Created by potrace 1.14, written by Peter Selinger 2001-2017
</metadata>
<g transform="translate(0.000000,500.000000) scale(0.100000,-0.100000)"
fill="#000000" stroke="none">
<path d="M1899 4466 c-5 -5 -183 -35 -241 -41 -24 -2 -68 -7 -98 -10 -30 -3
-130 -8 -222 -10 -91 -2 -186 -9 -210 -15 -140 -38 -367 -172 -493 -293 l-30
-29 35 6 c82 13 334 46 355 46 25 0 73 -67 220 -305 75 -120 398 -659 461
-768 21 -38 44 -76 49 -85 6 -9 27 -46 48 -82 21 -36 42 -72 47 -80 26 -40
291 -503 315 -548 15 -29 29 -52 30 -52 2 0 4 97 5 215 0 118 4 223 7 232 4
10 28 50 55 90 26 40 48 74 48 77 0 2 15 28 34 56 37 56 37 62 -3 125 -96 154
-741 1232 -741 1239 0 2 39 25 88 51 80 44 204 123 261 167 22 16 22 18 4 18
-11 0 -22 -2 -24 -4z"/>
<path d="M4128 4445 c-2 -3 -27 -8 -54 -11 -27 -3 -60 -7 -74 -9 -44 -7 -171
-15 -315 -20 -163 -6 -273 -14 -297 -21 -9 -3 -25 -6 -35 -8 -139 -27 -282
-101 -463 -239 l-65 -50 60 7 c33 3 71 8 85 11 72 11 380 29 380 21 0 -11 -69
-195 -113 -301 -36 -88 -241 -507 -281 -575 -9 -14 -58 -101 -111 -195 -53
-93 -100 -177 -105 -185 -25 -39 -132 -219 -149 -251 l-19 -35 29 -62 c18 -37
34 -59 42 -56 16 7 190 246 307 424 116 175 252 399 349 575 39 72 76 137 81
145 16 25 217 431 248 501 l29 65 79 28 c109 39 216 94 341 176 81 53 101 70
81 70 -13 0 -27 -2 -30 -5z"/>
<path d="M2338 2714 l-65 -106 -2 -276 c-4 -722 -18 -1090 -47 -1307 -8 -62
-12 -68 -64 -105 -30 -21 -44 -37 -37 -42 6 -4 14 -5 18 -2 4 2 38 6 75 9 78
6 83 7 144 24 46 13 161 68 170 81 3 4 12 9 20 12 8 2 -36 4 -98 4 -62 -1
-122 2 -134 7 -19 7 -20 9 -4 25 9 10 16 24 16 30 0 7 4 12 9 12 22 0 36 83
46 265 13 251 15 312 21 565 3 146 7 266 9 268 1 2 19 -23 38 -55 97 -158 241
-319 521 -578 286 -265 428 -432 522 -610 l37 -69 44 93 c23 51 57 119 75 150
22 38 33 70 34 101 1 25 4 104 8 175 10 196 24 477 31 635 8 159 14 369 16
523 l2 137 59 32 c32 17 56 33 53 36 -12 13 -191 9 -239 -4 -57 -17 -178 -74
-215 -103 -25 -19 -25 -19 76 -16 l101 3 7 -46 c3 -26 8 -63 10 -82 16 -119
-9 -1207 -28 -1226 -1 -2 -29 31 -62 73 -59 75 -228 248 -486 498 -173 168
-281 284 -359 390 -133 179 -207 339 -239 519 -6 33 -13 61 -15 63 -2 2 -32
-44 -68 -103z"/>
<path d="M2161 1914 c0 -11 3 -14 6 -6 3 7 2 16 -1 19 -3 4 -6 -2 -5 -13z"/>
<path d="M2162 1870 c0 -14 2 -19 5 -12 2 6 2 18 0 25 -3 6 -5 1 -5 -13z"/>
<path d="M2509 1845 c-1 -11 -2 -54 -4 -95 -6 -178 -17 -427 -19 -455 -2 -16
-6 -65 -10 -107 l-8 -78 56 0 56 0 1 68 c0 65 4 226 10 478 l3 121 -42 44
c-35 37 -42 41 -43 24z"/>
<path d="M2159 1803 c-4 -42 -6 -153 -2 -149 6 6 13 156 7 156 -2 0 -4 -3 -5
-7z"/>
<path d="M2152 1620 c0 -14 2 -19 5 -12 2 6 2 18 0 25 -3 6 -5 1 -5 -13z"/>
<path d="M2149 1533 c0 -32 -3 -101 -5 -153 -3 -52 -3 -92 0 -89 8 8 20 299
12 299 -3 0 -6 -26 -7 -57z"/>
<path d="M2142 1255 c0 -16 2 -22 5 -12 2 9 2 23 0 30 -3 6 -5 -1 -5 -18z"/>
<path d="M2131 1164 c0 -11 3 -14 6 -6 3 7 2 16 -1 19 -3 4 -6 -2 -5 -13z"/>
<path d="M3238 895 c-31 -31 -532 -64 -688 -45 -33 4 -58 0 -95 -16 -80 -34
-163 -51 -275 -59 -30 -1 -60 -3 -67 -4 -6 -1 -14 -15 -18 -31 -7 -30 -64
-113 -94 -137 -22 -18 293 -9 474 12 175 21 465 98 510 135 6 5 13 8 18 9 23
1 272 141 251 141 -6 0 -13 -2 -16 -5z"/>
</g>
</svg>
